HIERARCHY
ROOT Hips
{
 OFFSET 0.000000 0.000000 0.000000
 CHANNELS 6 Xposition Yposition Zposition Zrotation Yrotation Xrotation
 JOINT LeftUpLeg
 {
  OFFSET -10.548519 0.103460 -1.857825
  CHANNELS 3 Zrotation Yrotation Xrotation
  JOINT LeftLeg
  {
   OFFSET 0.000016 -43.500008 0.000019
   CHANNELS 3 Zrotation Yrotation Xrotation
   JOINT LeftFoot
   {
    OFFSET 0.000011 -42.372192 -0.000004
    CHANNELS 3 Zrotation Yrotation Xrotation
    JOINT LeftToe
    {
     OFFSET -0.000016 0.000001 -17.300001
     CHANNELS 3 Zrotation Yrotation Xrotation
     End Site
     {
      OFFSET 0.000000 0.000000 0.000000
     }
    }
   }
  }
 }
 JOINT RightUpLeg
 {
  OFFSET 10.548484 0.103460 -1.857824
  CHANNELS 3 Zrotation Yrotation Xrotation
  JOINT RightLeg
  {
   OFFSET 0.000031 -43.500046 0.000008
   CHANNELS 3 Zrotation Yrotation Xrotation
   JOINT RightFoot
   {
    OFFSET 0.000010 -42.372261 0.000000
    CHANNELS 3 Zrotation Yrotation Xrotation
    JOINT RightToe
    {
     OFFSET 0.000010 -0.000007 -17.299986
     CHANNELS 3 Zrotation Yrotation Xrotation
     End Site
     {
      OFFSET 0.000000 0.000000 0.000000
     }
    }
   }
  }
 }
 JOINT Spine
 {
  OFFSET 0.000000 6.901969 2.603749
  CHANNELS 3 Zrotation Yrotation Xrotation
  JOINT Spine1
  {
   OFFSET 0.000003 12.588099 -0.000014
   CHANNELS 3 Zrotation Yrotation Xrotation
   JOINT Spine2
   {
    OFFSET -0.000011 12.343207 -0.000019
    CHANNELS 3 Zrotation Yrotation Xrotation
    JOINT Neck
    {
     OFFSET 0.000002 25.832890 0.000025
     CHANNELS 3 Zrotation Yrotation Xrotation
     JOINT Head
     {
      OFFSET 0.000004 11.766609 -0.000013
      CHANNELS 3 Zrotation Yrotation Xrotation
      End Site
      {
       OFFSET 0.000000 0.000000 0.000000
      }
     }
    }
    JOINT LeftShoulder
    {
     OFFSET -6.000105 19.745899 1.480392
     CHANNELS 3 Zrotation Yrotation Xrotation
     JOINT LeftArm
     {
      OFFSET -11.284097 -0.000023 -0.000017
      CHANNELS 3 Zrotation Yrotation Xrotation
      JOINT LeftForeArm
      {
       OFFSET -33.000065 0.000044 -0.000020
       CHANNELS 3 Zrotation Yrotation Xrotation
       JOINT LeftHand
       {
        OFFSET -25.200005 0.000007 0.000023
        CHANNELS 3 Zrotation Yrotation Xrotation
        End Site
        {
         OFFSET 0.000000 0.000000 0.000000
        }
       }
      }
     }
    }
    JOINT RightShoulder
    {
     OFFSET 6.000090 19.746096 1.480391
     CHANNELS 3 Zrotation Yrotation Xrotation
     JOINT RightArm
     {
      OFFSET 11.284126 0.000012 -0.000026
      CHANNELS 3 Zrotation Yrotation Xrotation
      JOINT RightForeArm
      {
       OFFSET 33.000092 -0.000014 0.000010
       CHANNELS 3 Zrotation Yrotation Xrotation
       JOINT RightHand
       {
        OFFSET 25.199760 -0.000418 0.000151
        CHANNELS 3 Zrotation Yrotation Xrotation
        End Site
        {
         OFFSET 0.000000 0.000000 0.000000
        }
       }
      }
     }
    }
   }
  }
 }
}
MOTION
Frames: 11
Frame Time: 0.016667
-83.861038 87.287505 -203.515730 -16.751098 72.471936 -2.634308 -9.334298 8.370296 27.652220 -12.230129 7.839017 -37.517157 6.269788 9.295326 -18.616760 0.001129 0.002874 21.454553 12.613740 -2.121721 12.013579 10.459620 -0.250713 -70.950578 -3.524997 -6.458044 -9.013882 -0.001121 -0.002900 21.454558 0.291485 -0.115611 -11.155084 0.574147 -0.250155 -12.298079 0.574135 -0.249907 -11.979969 7.366850 -5.153584 -5.486707 -12.372408 -8.342336 7.646779 7.372849 -6.861784 0.560314 62.232377 -39.555900 -16.221706 176.108692 -52.352760 179.341236 -10.216772 -1.492906 5.293461 -18.848744 1.625554 0.951119 -51.933959 19.031633 -43.630023 69.661412 82.007640 66.732150 -6.607548 -0.366834 -42.770287
-81.321014 86.275771 -207.670110 -23.549221 81.640655 -10.100635 -6.993536 8.794829 32.962544 -12.392529 5.853962 -42.509535 6.448266 8.603580 -17.923713 0.001130 0.002875 21.454553 12.647359 3.730734 6.227825 9.403092 -1.447202 -64.137872 -1.598649 -5.979812 -8.154028 -0.001123 -0.002900 21.454562 0.113726 -0.439235 -11.026914 0.196820 -0.884563 -12.041809 0.197113 -0.884479 -11.723729 6.330189 -6.493131 -3.806203 -12.470381 -9.349153 7.761779 7.818261 -6.165933 0.634032 61.490607 -36.264571 -18.596578 176.702110 -54.923356 179.023086 -10.927412 -2.045359 0.510704 -20.963791 -0.918917 1.586033 -52.478406 14.278404 -41.284521 86.015185 84.413678 83.277104 -7.488580 -0.850453 -43.262379
-78.881953 84.171996 -211.639817 -122.280780 87.325145 -109.451129 -5.578581 6.004451 38.163842 -10.951292 4.581608 -49.713543 6.086362 7.544135 -15.315051 0.001130 0.002870 21.454551 12.300866 10.543469 0.219539 3.203153 -1.463913 -56.094444 -7.652228 -1.690408 -7.322332 -0.001118 -0.002892 21.454560 0.041462 -0.769880 -10.982657 0.029213 -1.539600 -11.952842 0.029830 -1.539599 -11.634758 5.680426 -7.610841 -2.168398 -12.995727 -10.237344 8.390267 8.484159 -5.206660 0.741747 59.470522 -32.491175 -19.724709 177.757730 -58.599186 178.331422 -10.306077 -3.511430 -9.090833 -21.691215 -2.465938 2.017425 -52.987254 10.179248 -38.676395 118.342115 85.859006 115.715161 -6.411385 0.540202 -42.701271
-76.443513 81.592261 -215.646292 -174.224455 79.875136 -161.562872 -3.577735 3.313435 41.926964 -10.730068 3.350761 -57.087853 5.830361 7.186144 -14.217459 0.001127 0.002871 21.454551 10.634749 13.974270 -5.135088 -2.298253 -1.398149 -50.466889 -10.353737 2.896215 8.094812 -0.001120 -0.002900 21.454557 -0.071748 -0.916711 -11.119503 -0.204825 -1.824930 -12.224805 -0.204063 -1.825044 -11.906709 3.234969 -9.177898 -1.060714 -12.296115 -10.897926 10.804869 8.282091 -4.499033 0.868317 57.555799 -29.171858 -20.288062 179.448407 -63.556933 177.049332 -7.829297 -5.655188 -20.430589 -22.436201 -3.895035 2.436851 -52.947652 7.317278 -36.608079 150.231505 84.710868 147.600951 -5.812015 1.713931 -42.055512
-74.250837 79.161528 -219.114190 174.463006 72.912106 -172.075650 -4.099092 0.801161 42.903251 -11.796193 4.382277 -63.320620 4.935418 8.402631 -13.810440 0.001131 0.002876 21.454550 8.876595 3.887751 -7.477422 -1.537139 -0.472135 -49.377350 -9.259399 3.762081 20.780223 -0.001121 -0.002903 21.454557 -0.681371 -0.656446 -11.557050 -1.399077 -1.269501 -13.094424 -1.398595 -1.270210 -12.776335 1.119339 -10.376248 -0.972346 -11.873252 -11.223841 14.194079 8.587682 -4.470962 0.855585 56.109613 -26.318470 -20.999127 -177.049698 -70.150630 173.974151 -6.744367 -6.186756 -32.435742 -22.970035 -5.258431 2.851118 -51.558789 6.162500 -34.269471 162.856152 83.167396 160.191102 -5.380793 3.294112 -40.754130
-71.878177 77.233840 -222.121259 168.406183 69.128993 -177.590616 -4.822386 1.798270 41.400026 -14.032540 5.190354 -65.975362 5.312240 10.163836 -16.082799 0.001126 0.002869 21.454551 6.524316 0.683864 -2.144847 -1.689271 -1.645062 -57.924314 -8.548448 3.419411 22.112303 -0.001118 -0.002898 21.454560 -1.435362 -0.016686 -12.010283 -2.865192 0.040787 -14.011346 -2.865341 0.039389 -13.693219 -0.508977 -10.024144 -0.873373 -10.049752 -10.501732 13.749256 9.899447 -4.166648 0.833591 56.825139 -22.086590 -21.049833 -165.736584 -79.581865 163.029660 -8.993738 -7.590699 -43.426731 -23.976593 -5.578019 2.980519 -47.468042 7.993631 -33.233302 162.122189 83.609295 159.470170 -3.548452 6.794518 -37.374382
-69.008085 76.564383 -225.016599 171.605292 66.676730 -175.464854 -3.495086 2.209989 38.793580 -10.937678 5.796372 -62.505053 4.881874 8.261142 -11.384380 0.001128 0.002871 21.454551 8.899482 -5.161462 2.258571 -2.995440 -0.356552 -62.267323 -6.871799 4.246331 22.620903 -0.001120 -0.002897 21.454560 -1.328748 0.262816 -12.063707 -2.638270 0.591749 -14.124056 -2.638688 0.590452 -13.805932 -1.109489 -7.774718 -1.985732 -6.161677 -7.966001 12.294659 11.408040 -3.278353 0.919195 59.139472 -14.510605 -18.805160 -80.939498 -84.281031 78.234896 -11.259055 -4.209586 -46.541022 -22.501683 -5.444193 2.889937 -45.973737 11.867637 -34.106746 164.374341 82.930990 161.702851 -2.879205 7.698139 -37.564752
-66.244543 77.667540 -226.936325 171.182177 63.147835 -177.910119 -7.404718 -0.700898 41.694512 -5.744217 12.114695 -58.231843 -1.788947 7.850653 -20.886513 0.001129 0.002872 21.454553 7.942993 -12.271878 4.991398 -2.198836 2.537974 -60.759472 -6.886649 4.643663 20.461025 -0.001117 -0.002888 21.454560 -1.349151 0.250086 -11.872771 -2.678936 0.571935 -13.742147 -2.679352 0.570597 -13.424026 -1.524082 -4.634482 -2.741599 -3.737770 -4.536838 13.298340 13.247306 -1.384214 1.221765 59.127688 -7.020730 -16.448736 -47.528932 -76.276085 44.102567 -12.370025 0.276344 -43.978029 -22.273628 -5.299308 2.840073 -44.852883 16.503184 -34.079089 173.170607 79.636126 170.387739 -2.731882 9.249423 -39.599681
-63.698256 79.146155 -228.542711 174.246027 60.300526 -176.010341 -1.055646 7.341665 43.576453 -4.367307 8.816285 -56.102536 12.381771 6.528182 -21.224602 0.001131 0.002885 21.454555 9.760928 -12.233884 5.453475 -2.311390 0.310180 -57.994909 -7.695878 3.939431 17.930227 -0.001121 -0.002900 21.454560 -0.967916 0.686292 -11.902522 -1.895042 1.421287 -13.805586 -1.895875 1.420353 -13.487483 -1.420216 -3.072731 -3.550807 -3.034696 -2.952232 13.648887 13.007698 -1.310073 1.244182 57.083548 0.306518 -16.083910 -34.765453 -69.860749 30.721444 -15.741480 0.318861 -37.931320 -20.477219 -5.483179 2.833175 -46.271906 19.695945 -33.910407 178.465960 75.828210 175.506150 0.485065 11.400960 -35.826807
-61.493995 82.409972 -228.865937 177.360799 59.051491 -174.830160 4.982531 16.594270 45.190958 0.021829 4.062309 -54.525326 16.938914 2.209622 -20.611046 0.001130 0.002865 21.454545 11.333617 -10.015209 4.548732 -2.153434 -1.994068 -50.003064 -8.889920 2.562237 12.258229 -0.001122 -0.002903 21.454558 -0.464445 1.583997 -11.704440 -0.837079 3.187721 -13.409266 -0.838773 3.187299 -13.091206 -0.335928 -2.471919 -3.999746 -3.654022 -2.701146 11.819061 11.273489 -1.348145 1.287349 53.376116 5.665534 -21.834927 -27.145471 -64.519996 22.720388 -15.483698 2.487428 -32.645397 -17.906582 -3.958288 2.366776 -47.547796 20.911656 -32.321931 -178.403566 72.591453 178.433434 3.135080 12.547092 -33.436985
-59.374752 86.203459 -228.552964 178.878797 57.735390 -175.771287 7.524636 20.122828 47.249769 2.943366 0.903802 -55.074415 14.532567 -1.209264 -17.901235 0.001132 0.002869 21.454553 10.964714 -6.045683 2.761642 -0.739207 -4.992484 -38.451903 -11.077969 -0.368932 4.183692 -0.001125 -0.002911 21.454560 -0.111948 2.292128 -11.271892 -0.075527 4.582238 -12.534525 -0.077918 4.582171 -12.216517 1.997430 -2.117227 -5.362108 -5.768628 -3.108725 10.920024 10.039738 -0.994150 1.386115 48.825238 9.614125 -31.058067 -25.051840 -60.286379 20.092668 -10.235147 3.187839 -36.078722 -14.044764 -2.572813 1.997879 -48.890790 23.023432 -32.556181 -177.724821 71.502501 179.037388 4.858662 12.911915 -32.780835
